<?xml version="1.0" encoding="UTF-8"?>
<svg id="Layer_2" data-name="Layer 2" xmlns="http://www.w3.org/2000/svg" viewBox="0 0 560 560">
  <defs>
    <style>
      .cls-1 {
        fill: #fff;
      }

      .cls-2, .cls-3 {
        fill: #fbc15b;
      }

      .cls-3 {
        fill-rule: evenodd;
      }
    </style>
  </defs>
  <g id="Layer_1-2" data-name="Layer 1">
    <rect class="cls-1" width="560" height="560"/>
    <g>
      <path class="cls-3" d="M217.65,175.14c23.3-15.37,51.05-22.55,78.89-20.4,27.83,2.15,54.16,13.51,74.81,32.29,4.67,4.24,11.89,3.89,16.13-.77,4.24-4.67,3.9-11.89-.77-16.13-24.41-22.19-55.52-35.61-88.41-38.16-32.89-2.54-65.7,5.94-93.23,24.12-27.53,18.17-48.23,45-58.83,76.23-5.43,16.02-8.05,32.75-7.86,49.44-13.73,10.44-24.47,23.53-29.88,37.67-5.29,11.87-8.43,25.09-6.78,37.33,1.45,10.72,6.62,20.43,16.25,26.9l-.12.21c1.29.75,2.61,1.44,3.97,2.07.96.5,1.96.98,2.99,1.42l.05-.12c12.9,5.01,28.54,5.38,44.07,3.67,5.34-.59,10.83-1.44,16.43-2.51,6.32,5.92,13.17,11.3,20.51,16.08,27.65,17.99,60.51,26.26,93.38,23.5,32.88-2.76,63.9-16.38,88.16-38.73,24.27-22.35,40.41-52.14,45.86-84.67,1.05-6.22-3.15-12.11-9.38-13.16-6.22-1.04-12.11,3.16-13.15,9.38-4.61,27.53-18.27,52.74-38.8,71.65-20.54,18.91-46.78,30.44-74.6,32.77-27.82,2.34-55.62-4.67-79.02-19.88-1.8-1.18-3.57-2.39-5.31-3.65,5.28-1.52,10.54-3.16,15.76-4.89,45.26-14.97,88.27-39.13,122.34-73.39,7.3-7.34,15.3-16.33,27.2-30.22,4.11-4.79,3.55-12-1.23-16.11-4.79-4.1-12-3.55-16.11,1.24-11.87,13.85-19.4,22.29-26.05,28.98-31.11,31.28-70.82,53.76-113.32,67.81-9.71,3.22-19.39,6.05-28.74,8.3-10.86-12.25-19.3-26.58-24.73-42.25-9.14-26.38-9.23-55.05-.27-81.48,8.97-26.44,26.48-49.14,49.78-64.51ZM167.32,368.09c-8.81-11.96-15.84-25.25-20.77-39.48-2.15-6.2-3.87-12.51-5.18-18.88-5.46,5.92-9.38,12.12-11.62,18.08l-.13.34-.15.33c-4.36,9.7-6.01,18.59-5.12,25.22.71,5.28,2.96,9.17,7.59,11.74,7.64,3.36,19.22,4.43,34.49,2.75.29-.03.58-.07.88-.1Z"/>
      <path class="cls-2" d="M443.35,163.18c-20.82,1.72-47.58,18.33-64.3,44.44l-15.55,1.29c-11.24.93-16.98,9.86-20.68,19.09l-4.95,12.37,14.01-1.17,14.04-1.16,15.77,13.36,15.77,13.36,1.16,14.03,1.16,14.02,11.38-6.92c8.5-5.17,16.36-12.31,15.43-23.55l-1.29-15.56c23-20.8,34.97-49.92,33.24-70.74l-1.16-14.04-14.03,1.17ZM420.96,194.37c5.36-.45,10.07,3.54,10.51,8.9.45,5.36-3.54,10.07-8.9,10.51-5.37.45-10.07-3.54-10.52-8.9-.45-5.36,3.54-10.07,8.91-10.51Z"/>
    </g>
  </g>
</svg>